<svg xmlns="http://www.w3.org/2000/svg" width="32.698" height="31.822" viewBox="0 0 32.698 31.822">
  <g id="shopping-cart" transform="translate(-9 11.972)">
    <g id="Group_3707" data-name="Group 3707" transform="translate(9 -11.972)">
      <g id="Group_3706" data-name="Group 3706" transform="translate(0 0)">
        <path id="Path_1172" data-name="Path 1172" d="M100.067,350.322a3.414,3.414,0,1,0,3.414,3.414A3.414,3.414,0,0,0,100.067,350.322Zm0,5.31a1.9,1.9,0,1,1,1.9-1.9A1.9,1.9,0,0,1,100.067,355.632Z" transform="translate(-89.636 -325.327)" fill="#de703d"/>
        <path id="Path_1173" data-name="Path 1173" d="M298.6,350.322a3.414,3.414,0,1,0,3.414,3.414A3.414,3.414,0,0,0,298.6,350.322Zm0,5.31a1.9,1.9,0,1,1,1.9-1.9A1.9,1.9,0,0,1,298.6,355.632Z" transform="translate(-273.754 -325.327)" fill="#de703d"/>
        <path id="Path_1174" data-name="Path 1174" d="M32.543,11.111a.948.948,0,0,0-.607-.3L7.244,10.466,6.562,8.38A3.49,3.49,0,0,0,3.3,6.028H.759a.759.759,0,1,0,0,1.517H3.3A1.972,1.972,0,0,1,5.12,8.873L9.937,23.4l-.379.872a3.641,3.641,0,0,0,.341,3.3,3.527,3.527,0,0,0,2.845,1.593H27.5a.759.759,0,1,0,0-1.517H12.744a1.934,1.934,0,0,1-1.593-.91,2.086,2.086,0,0,1-.19-1.821l.3-.683,15.968-1.669a4.172,4.172,0,0,0,3.6-3.186l1.821-7.624A.645.645,0,0,0,32.543,11.111Zm-3.186,7.927a2.579,2.579,0,0,1-2.314,2.01L11.265,22.679l-3.527-10.7,23.251.341Z" transform="translate(0 -6.028)" fill="#de703d"/>
      </g>
    </g>
  </g>
</svg>
