<svg id="Group_1" data-name="Group 1" xmlns="http://www.w3.org/2000/svg" width="98.125" height="32.154" viewBox="0 0 98.125 32.154">
  <g id="Group_3407" data-name="Group 3407" transform="translate(0)">
    <g id="Group_3405" data-name="Group 3405">
      <g id="Text">
        <path id="XMLID_146_" d="M196.49,266.9l10.031-16.057h-6.66c-.476.793-1.031,1.665-1.626,2.576-.595.953-1.15,1.863-1.744,2.814s-1.15,1.863-1.7,2.775-1.11,1.744-1.586,2.5l-6.621-10.7h-6.74c1.626,2.617,3.29,5.273,5.035,8.01s3.409,5.392,5,7.969L179.8,282.953h6.621l6.819-10.784,6.819,10.784h6.581Z" transform="translate(-108.515 -250.8)" fill="#de703d"/>
        <path id="XMLID_143_" d="M79.262,271.129a10.546,10.546,0,1,0,0,17.444v1.308H83.9V263.2H79.262Zm-5.947,14.114a5.392,5.392,0,1,1,5.392-5.392A5.392,5.392,0,0,1,73.315,285.244Z" transform="translate(-37.91 -258.284)" fill="#de703d"/>
        <path id="XMLID_142_" d="M17.8,281h0v8.167h0a6.323,6.323,0,0,1-12.608.278h-.04V281H0v8.445H0a11.473,11.473,0,0,0,22.916,0h0V281Z" transform="translate(0 -269.027)" fill="#de703d"/>
        <path id="XMLID_141_" d="M139.3,282h0v8.167h0a6.323,6.323,0,0,1-12.608.277h-.04V282H121.5v8.445h0a11.473,11.473,0,0,0,22.916,0h0V282Z" transform="translate(-73.329 -269.63)" fill="#de703d"/>
      </g>
    </g>
  </g>
</svg>
