<svg xmlns="http://www.w3.org/2000/svg" width="131.854" height="65.469" viewBox="0 0 131.854 65.469">
  <g id="Group_3441" data-name="Group 3441" transform="translate(-1103 -220)">
    <path id="Path_320" data-name="Path 320" d="M288.7,361.6v21.426h-5.86V371.008l-3.914,5.792H275.86l-4.3-5.792v12.018H266.2V361.6h5.4l6.181,8.4,5.54-8.4Zm1.694,4.853V361.6H310.4v4.853h-7v16.573h-5.975V366.453Zm42.051-4.853v21.426h-4.922l-10.072-12.247v12.247H312.1V361.6h5.334l9.637,11.812V361.6Z" transform="translate(869.809 -119.945)" fill="#fbb815"/>
    <path id="Path_321" data-name="Path 321" d="M187.927,332.469c-17.306,0-33.627-3.228-45.943-9.111C129.1,317.2,122,308.822,122,299.735s7.1-17.466,19.984-23.624C154.3,270.228,170.621,267,187.927,267s33.627,3.228,45.943,9.111c12.888,6.158,19.984,14.536,19.984,23.624s-7.1,17.466-19.984,23.624C221.554,329.241,205.233,332.469,187.927,332.469Zm0-60.639c-16.619,0-32.185,3.067-43.86,8.653-11.1,5.311-17.237,12.155-17.237,19.275s6.112,13.964,17.237,19.251c11.675,5.585,27.264,8.653,43.86,8.653s32.185-3.068,43.86-8.653c11.1-5.288,17.237-12.155,17.237-19.251s-6.112-13.964-17.237-19.252c-11.675-5.608-27.241-8.676-43.86-8.676Z" transform="translate(981 -47)" fill="#fbb815"/>
  </g>
</svg>
